<svg xmlns="http://www.w3.org/2000/svg" viewBox="0 0 60 40">
  <rect width="60" height="40" fill="#fff"/>
  <g fill="#B22234">
    <rect width="60" height="3.08" y="0"/>
    <rect width="60" height="3.08" y="6.15"/>
    <rect width="60" height="3.08" y="12.31"/>
    <rect width="60" height="3.08" y="18.46"/>
    <rect width="60" height="3.08" y="24.62"/>
    <rect width="60" height="3.08" y="30.77"/>
    <rect width="60" height="3.07" y="36.93"/>
  </g>
  <rect width="24" height="21.54" fill="#3C3B6E"/>
  <g fill="#fff">
    <circle cx="3" cy="3" r="0.9"/><circle cx="9" cy="3" r="0.9"/><circle cx="15" cy="3" r="0.9"/><circle cx="21" cy="3" r="0.9"/>
    <circle cx="6" cy="7.2" r="0.9"/><circle cx="12" cy="7.2" r="0.9"/><circle cx="18" cy="7.2" r="0.9"/>
    <circle cx="3" cy="11.4" r="0.9"/><circle cx="9" cy="11.4" r="0.9"/><circle cx="15" cy="11.4" r="0.9"/><circle cx="21" cy="11.4" r="0.9"/>
    <circle cx="6" cy="15.6" r="0.9"/><circle cx="12" cy="15.6" r="0.9"/><circle cx="18" cy="15.6" r="0.9"/>
    <circle cx="3" cy="19.2" r="0.9"/><circle cx="9" cy="19.2" r="0.9"/><circle cx="15" cy="19.2" r="0.9"/><circle cx="21" cy="19.2" r="0.9"/>
  </g>
</svg>
