<svg width="64" height="64" viewBox="0 0 64 64" fill="none" xmlns="http://www.w3.org/2000/svg">
<g clip-path="url(#clip0_1472_34)">
<path d="M50 0H14C6.26801 0 0 6.26801 0 14V50C0 57.732 6.26801 64 14 64H50C57.732 64 64 57.732 64 50V14C64 6.26801 57.732 0 50 0Z" fill="#0A1F44"/>
<path d="M29.8862 38.3496C27.796 36.2676 24.9541 35.0729 22.0899 35.0729H21.9924C19.6122 35.0952 17.3789 35.8598 15.5078 37.2877L29.8324 51.5593C30.3638 52.0888 31.0605 52.4465 31.8102 52.4939C32.6742 52.5487 33.4964 52.2384 34.1031 51.6336L48.3031 37.4865C48.8633 36.9282 49.1783 36.171 49.1783 35.3804L49.1801 23.3496L32.0063 40.4594L29.8881 38.3496H29.8862Z" fill="#2563EA"/>
<path d="M46.2049 11.5009H17.802C16.1604 11.5009 14.8301 12.8313 14.8301 14.4729V33.7138L32.0039 16.6012L34.2215 18.8105C36.2774 20.8599 39.0097 21.9886 41.9138 21.9886C44.607 21.9886 47.1813 21.0048 49.1787 19.2146V14.4738C49.1787 12.8313 47.8474 11.5 46.2049 11.5V11.5009Z" fill="white"/>
</g>
<defs>
<clipPath id="clip0_1472_34">
<rect width="64" height="64" fill="white"/>
</clipPath>
</defs>
</svg>
