<svg width="64" height="64" viewBox="0 0 64 64" fill="none" xmlns="http://www.w3.org/2000/svg">
  <rect width="64" height="64" rx="14" fill="#2563EA"/>
  <g transform="translate(14.83, 11.5)">
    <path d="M15.0573 26.849C12.9673 24.7658 10.1256 23.5725 7.26117 23.5725H7.16381C4.78398 23.5951 2.55133 24.3582 0.678711 25.787L15.003 40.0592C15.5351 40.589 16.2303 40.9468 16.9798 40.9944C17.8425 41.0487 18.6667 40.7385 19.2735 40.1339L33.4733 25.9862C34.0326 25.4292 34.3473 24.6707 34.3473 23.8804L34.3496 11.8477L17.1745 28.9571L15.0573 26.849Z" fill="white"/>
    <path d="M31.3771 0H2.97309C1.33144 0 0 1.33143 0 2.97308V22.2155L17.1751 5.10384L19.3919 7.31384C21.4479 9.36308 24.181 10.493 27.0839 10.493C29.7784 10.493 32.3507 9.508 34.3479 7.71916V2.97762C34.3502 1.33144 33.0187 0 31.3771 0Z" fill="white"/>
  </g>
</svg>
