<svg width="587" height="135" viewBox="0 0 587 135" fill="none" xmlns="http://www.w3.org/2000/svg">
<path d="M49.2888 87.8805C42.4488 81.0605 33.1488 77.1505 23.7688 77.1505H23.4487C15.6587 77.2205 8.34875 79.7205 2.21875 84.4005L49.0989 131.11C50.8389 132.84 53.1188 134.01 55.5688 134.17C58.3988 134.35 61.0889 133.33 63.0789 131.35L109.559 85.0405C111.389 83.2105 112.419 80.7305 112.419 78.1505V38.7705L56.2087 94.7705L49.2788 87.8605L49.2888 87.8805Z" fill="#2563EA"/>
<path d="M102.7 0H9.72998C4.35998 0 0 4.35998 0 9.72998V72.71L56.21 16.7L63.47 23.93C70.2 30.64 79.1401 34.33 88.6501 34.33C97.4701 34.33 105.89 31.11 112.43 25.25V9.72998C112.43 4.34998 108.07 0 102.7 0Z" fill="white"/>
<path d="M147.211 91.8194L171.311 22.1494H190.331L214.401 91.8194H198.581L193.401 75.9294H168.211L163.031 91.8194H147.211ZM189.681 64.4394L181.091 38.0794H180.541L171.951 64.4394H189.681Z" fill="white"/>
<path d="M222.5 39.5696H236.34V48.7896H236.95C239.13 42.6296 244.48 38.8896 251.54 38.8896C258.6 38.8896 264.09 42.7296 265.76 48.7896H266.31C268.46 42.7996 274.42 38.8896 282.09 38.8896C291.84 38.8896 298.59 45.3496 298.59 56.6796V91.8196H284.1V59.5396C284.1 53.7196 280.62 50.8297 275.99 50.8297C270.71 50.8297 267.6 54.4997 267.6 59.9097V91.8196H253.52V59.2296C253.52 54.0896 250.32 50.8297 245.54 50.8297C240.76 50.8297 237.02 54.6697 237.02 60.4597V91.8196H222.5V39.5696Z" fill="white"/>
<path d="M310.031 39.5696H324.351V48.3496H325.001C326.941 44.0996 331.141 38.8896 339.901 38.8896C351.391 38.8896 361.101 47.7996 361.101 65.7596C361.101 83.7196 351.791 92.6696 339.861 92.6696C331.411 92.6696 327.011 87.7996 325.001 83.4496H324.561V111.41H310.041V39.5696H310.031ZM335.251 81.1396C342.371 81.1396 346.261 74.8096 346.261 65.6896C346.261 56.5696 342.441 50.4196 335.251 50.4196C328.061 50.4196 324.241 56.3696 324.241 65.6896C324.241 75.0096 328.261 81.1396 335.251 81.1396Z" fill="white"/>
<path d="M368.722 110.569L371.992 99.3394C377.102 100.899 380.612 100.599 382.662 95.8394L383.612 93.3193L364.832 39.5693H380.102L390.942 77.9393H391.492L402.432 39.5693H417.802L397.352 97.8093C394.382 106.179 388.082 112.169 377.442 112.169C373.322 112.169 370.352 111.289 368.712 110.569H368.722Z" fill="white"/>
<path d="M426.332 22.1497H452.512C468.572 22.1497 477.122 31.9097 477.122 45.2097C477.122 58.5097 468.462 68.2697 452.342 68.2697H438.982V91.8096H426.332V22.1396V22.1497ZM450.632 57.9097C460.042 57.9097 464.232 52.6397 464.232 45.2197C464.232 37.7997 460.042 32.6996 450.562 32.6996H438.972V57.9097H450.632Z" fill="#2563EA"/>
<path d="M484.172 77.1594C484.172 65.3894 493.882 62.3594 504.042 61.2694C513.282 60.2794 516.992 60.1094 516.992 56.5794V56.3794C516.992 51.2394 513.862 48.3194 508.132 48.3194C502.102 48.3194 498.622 51.3794 497.392 54.9494L485.872 53.3194C488.602 43.7994 497.052 38.8994 508.062 38.8994C518.052 38.8994 529.332 43.0494 529.332 56.8594V91.8294H517.472V84.6494H517.062C514.812 89.0394 509.902 92.8794 501.692 92.8794C491.702 92.8794 484.172 87.4394 484.172 77.1594ZM517.032 73.0794V66.9194C515.432 68.2094 508.952 69.0294 505.712 69.4694C500.192 70.2494 496.062 72.2194 496.062 76.9494C496.062 81.6794 499.742 83.8194 504.892 83.8194C512.322 83.8194 517.032 78.8894 517.032 73.0694V73.0794Z" fill="#2563EA"/>
<path d="M539.321 110.769L542.181 100.899C547.571 102.469 551.151 101.989 553.461 96.2393L554.691 92.9094L535.701 39.5693H548.791L560.861 79.0294H561.411L573.511 39.5693H586.631L565.501 98.6193C562.571 106.849 556.641 112.159 547.091 112.159C543.481 112.159 540.721 111.339 539.321 110.759V110.769Z" fill="#2563EA"/>
</svg>
