<svg width="180" height="41" viewBox="0 0 180 41" fill="none" xmlns="http://www.w3.org/2000/svg">
<path d="M15.0573 26.849C12.9673 24.7658 10.1256 23.5725 7.26117 23.5725H7.16381C4.78398 23.5951 2.55133 24.3582 0.678711 25.787L15.003 40.0592C15.5351 40.589 16.2303 40.9468 16.9798 40.9944C17.8425 41.0487 18.6667 40.7385 19.2735 40.1339L33.4733 25.9862C34.0326 25.4292 34.3473 24.6707 34.3473 23.8804L34.3496 11.8477L17.1745 28.9571L15.0573 26.849Z" fill="white"/>
<path d="M31.3771 0H2.97309C1.33144 0 0 1.33143 0 2.97308V22.2155L17.1751 5.10384L19.3919 7.31384C21.4479 9.36308 24.181 10.493 27.0839 10.493C29.7784 10.493 32.3507 9.508 34.3479 7.71916V2.97762C34.3502 1.33144 33.0187 0 31.3771 0Z" fill="white"/>
<path d="M44.9717 28.0505L52.3353 6.76562H58.1457L65.498 28.0505H60.6659L59.0831 23.198H51.3866L49.8038 28.0505H44.9717ZM57.9487 19.686L55.3243 11.6317H55.1567L52.5323 19.686H57.9487Z" fill="white"/>
<path d="M67.9782 12.0872H72.2057V14.9041H72.3936C73.0594 13.0224 74.6942 11.8789 76.8499 11.8789C79.0463 11.8789 80.6834 13.0541 81.1929 14.9041H81.3605C82.0171 13.0745 83.8399 11.8789 86.1813 11.8789C89.1611 11.8789 91.2217 13.8534 91.2217 17.3133V28.0486H86.7949V18.1851C86.7949 16.4076 85.7329 15.5245 84.3154 15.5245C82.701 15.5245 81.7522 16.6476 81.7522 18.3006V28.0486H77.4499V18.0923C77.4499 16.5231 76.4717 15.5245 75.0135 15.5245C73.5349 15.5245 72.4095 16.6997 72.4095 18.4659V28.0486H67.9736V12.0872H67.9782Z" fill="white"/>
<path d="M94.7197 12.0872H99.0944V14.7682H99.2914C99.8847 13.4685 101.166 11.8789 103.843 11.8789C107.353 11.8789 110.321 14.6007 110.321 20.0894C110.321 25.431 107.477 28.3113 103.831 28.3113C101.248 28.3113 99.9051 26.8259 99.2914 25.4944H99.1556V34.0378H94.7197V12.0872ZM102.425 24.788C104.601 24.788 105.79 22.8542 105.79 20.0691C105.79 17.3043 104.624 15.4022 102.425 15.4022C100.27 15.4022 99.0605 17.2205 99.0605 20.0691C99.0628 22.9176 100.29 24.788 102.425 24.788Z" fill="white"/>
<path d="M112.651 33.7774L113.652 30.3469C115.214 30.8247 116.288 30.7319 116.913 29.2759L117.205 28.506L111.467 12.085H116.134L119.446 23.8075H119.614L122.958 12.085H127.655L121.405 29.8782C120.499 32.4347 118.572 34.2642 115.323 34.2642C114.057 34.2665 113.151 33.9971 112.651 33.7774Z" fill="white"/>
<path d="M130.249 6.76562H138.247C143.152 6.76562 145.767 9.74778 145.767 13.8123C145.767 17.9062 143.122 20.8589 138.195 20.8589H134.112V28.0505H130.247V6.76562H130.249ZM137.676 17.6888C140.55 17.6888 141.831 16.0789 141.831 13.8123C141.831 11.5457 140.55 9.9878 137.656 9.9878H134.115V17.6888H137.676Z" fill="white"/>
<path d="M147.92 23.5714C147.92 19.9756 150.889 19.0495 153.993 18.7189C156.815 18.4177 157.951 18.3656 157.951 17.2856V17.2244C157.951 15.6552 156.994 14.7608 155.243 14.7608C153.4 14.7608 152.338 15.696 151.962 16.7874L148.441 16.2892C149.274 13.3796 151.858 11.8828 155.221 11.8828C158.273 11.8828 161.719 13.1509 161.719 17.3693V28.0525H158.094V25.8606H157.97C157.281 27.2011 155.782 28.3763 153.273 28.3763C150.223 28.3741 147.92 26.7098 147.92 23.5714ZM157.961 22.326V20.4443C157.471 20.8383 155.492 21.0897 154.503 21.2233C152.816 21.4633 151.555 22.0656 151.555 23.5102C151.555 24.8915 152.68 25.6093 154.252 25.6093C156.525 25.6093 157.961 24.1012 157.961 22.326Z" fill="white"/>
<path d="M164.772 33.8415L165.646 30.8276C167.292 31.3054 168.386 31.1605 169.092 29.4034L169.468 28.3844L163.667 12.0879H167.666L171.352 24.1433H171.52L175.217 12.0879H179.227L172.769 30.1302C171.873 32.6459 170.061 34.2672 167.145 34.2672C166.042 34.2672 165.197 34.0181 164.772 33.8415Z" fill="white"/>
</svg>
